<svg width="22" height="22" viewBox="0 0 22 22" fill="none" xmlns="http://www.w3.org/2000/svg">
<g id="1f44b.svg" clip-path="url(#clip0_7425_110432)">
<path id="Vector" d="M3.79764 5.87358C4.34504 5.49097 5.17023 5.56435 5.66173 5.97024L5.09802 5.15088C4.64437 4.5039 4.80684 3.80392 5.45441 3.34969C6.10198 2.8972 7.93696 4.11372 7.93696 4.11372C7.47923 3.46033 7.56484 2.63224 8.21823 2.17393C8.87162 1.71737 9.77309 1.87519 10.2308 2.52974L16.2989 11.1019L15.5255 18.5996L9.07137 16.2457L3.44182 7.89898C2.98002 7.24151 3.13959 6.33479 3.79764 5.87358Z" fill="#EF9645"/>
<path id="Vector_2" d="M2.53686 10.6416C2.53686 10.6416 1.87764 9.6807 2.8391 9.02206C3.79939 8.36343 4.45802 9.32372 4.45802 9.32372L7.51592 13.7833C7.62133 13.6075 7.73663 13.4339 7.86533 13.2627L3.62119 7.07412C3.62119 7.07412 2.96256 6.11383 3.92343 5.45519C4.88372 4.79656 5.54235 5.75685 5.54235 5.75685L9.53433 11.5786C9.68283 11.4574 9.83482 11.3357 9.99148 11.2163L5.36357 4.46637C5.36357 4.46637 4.70494 3.50608 5.66581 2.84745C6.6261 2.18881 7.28473 3.1491 7.28473 3.1491L11.9126 9.89791C12.0827 9.79367 12.251 9.70341 12.4199 9.6079L8.09419 3.29993C8.09419 3.29993 7.43556 2.33964 8.39585 1.68101C9.35614 1.02237 10.0148 1.98266 10.0148 1.98266L14.5885 8.65286L15.2838 9.6673C12.4024 11.6438 12.1281 15.3621 13.7744 17.7631C14.1034 18.2435 14.5839 17.9145 14.5839 17.9145C12.608 15.0325 13.2113 11.794 16.0933 9.81813L15.2437 5.56584C15.2437 5.56584 14.9263 4.4454 16.0461 4.12744C17.1666 3.81006 17.4845 4.9305 17.4845 4.9305L18.4658 7.84456C18.8548 8.99993 19.2688 10.1512 19.8168 11.2402C21.3641 14.315 20.4399 18.1364 17.5224 20.1379C14.3399 22.3199 9.98915 21.5087 7.80651 18.3268L2.53686 10.6416Z" fill="#FFCF0D"/>
<g id="Wave Icon">
<path id="Vector_3" d="M7.95925 19.206C5.62986 19.206 3.27602 16.8522 3.27602 14.5228C3.27602 14.2007 3.04017 13.9404 2.71813 13.9404C2.3961 13.9404 2.11133 14.2007 2.11133 14.5228C2.11133 18.0169 4.46517 20.3707 7.95925 20.3707C8.28129 20.3707 8.5416 20.0859 8.5416 19.7639C8.5416 19.4419 8.28129 19.206 7.95925 19.206Z" fill="#4392F1"/>
<path id="Vector_4" d="M5.04713 20.347C3.30009 20.347 2.1354 19.1823 2.1354 17.4353C2.1354 17.1132 1.87509 16.8529 1.55305 16.8529C1.23101 16.8529 0.970703 17.1132 0.970703 17.4353C0.970703 19.7646 2.71774 21.5117 5.04713 21.5117C5.36916 21.5117 5.62947 21.2514 5.62947 20.9293C5.62947 20.6073 5.36916 20.347 5.04713 20.347ZM14.947 1.71191C14.6256 1.71191 14.3647 1.97281 14.3647 2.29426C14.3647 2.61572 14.6256 2.87661 14.947 2.87661C17.2764 2.87661 19.6058 4.96665 19.6058 7.53538C19.6058 7.85683 19.8667 8.11772 20.1881 8.11772C20.5096 8.11772 20.7705 7.85683 20.7705 7.53538C20.7705 4.32432 18.4411 1.71191 14.947 1.71191Z" fill="#4392F1"/>
<path id="Vector_5" d="M17.8577 0.571289C17.5363 0.571289 17.2754 0.807722 17.2754 1.12918C17.2754 1.45063 17.5363 1.73598 17.8577 1.73598C19.6048 1.73598 20.745 3.0317 20.745 4.62325C20.745 4.94471 21.0298 5.2056 21.3518 5.2056C21.6739 5.2056 21.9097 4.94471 21.9097 4.62325C21.9097 2.38879 20.1871 0.571289 17.8577 0.571289Z" fill="#4392F1"/>
</g>
</g>
<defs>
<clipPath id="clip0_7425_110432">
<rect width="20.9645" height="20.9645" fill="white" transform="translate(0.966797 0.547852)"/>
</clipPath>
</defs>
</svg>
