<svg width="12" height="8" viewBox="0 0 12 8" fill="none" xmlns="http://www.w3.org/2000/svg">
<path d="M11.6321 6.36353C11.6321 6.45581 11.5991 6.5415 11.5333 6.62061L10.9602 7.17432C10.8812 7.25342 10.7956 7.29297 10.7034 7.29297C10.598 7.29297 10.5123 7.25342 10.4465 7.17432L6.0006 2.74463L1.57447 7.17432C1.49543 7.25342 1.40322 7.29297 1.29784 7.29297C1.20563 7.29297 1.12 7.25342 1.04096 7.17432L0.487698 6.62061C0.40866 6.5415 0.369141 6.45581 0.369141 6.36353C0.369141 6.25806 0.40866 6.16577 0.487698 6.08667L5.74372 0.826416C5.82276 0.747314 5.90839 0.707764 6.0006 0.707764C6.10598 0.707764 6.19161 0.747314 6.25747 0.826416L11.5333 6.08667C11.5991 6.16577 11.6321 6.25806 11.6321 6.36353Z" fill="#2C2B54"/>
</svg>
