<svg width="16" height="17" viewBox="0 0 16 17" fill="none" xmlns="http://www.w3.org/2000/svg">
<g id="envelope-fill">
<path id="Vector" d="M0.05 3.805C0.150818 3.36324 0.398655 2.96881 0.752922 2.68631C1.10719 2.4038 1.54688 2.24997 2 2.25H14C14.4531 2.24997 14.8928 2.4038 15.2471 2.68631C15.6013 2.96881 15.8492 3.36324 15.95 3.805L8 8.664L0.05 3.805ZM0 4.947V12.051L5.803 8.493L0 4.947ZM6.761 9.08L0.191 13.107C0.353327 13.4493 0.609527 13.7384 0.929782 13.9408C1.25004 14.1431 1.62117 14.2504 2 14.25H14C14.3788 14.2501 14.7498 14.1426 15.0698 13.9401C15.3899 13.7376 15.6459 13.4483 15.808 13.106L9.238 9.079L8 9.836L6.761 9.079V9.08ZM10.197 8.494L16 12.051V4.947L10.197 8.493V8.494Z" fill="white"/>
</g>
</svg>
