<svg width="24" height="25" viewBox="0 0 24 25" fill="none" xmlns="http://www.w3.org/2000/svg">
<g clip-path="url(#clip0_7986_18493)">
<path d="M12.0039 6.45117C12.2028 6.45117 12.3936 6.53019 12.5342 6.67084C12.6749 6.81149 12.7539 7.00226 12.7539 7.20117V11.7012H17.2539C17.4528 11.7012 17.6436 11.7802 17.7842 11.9208C17.9249 12.0615 18.0039 12.2523 18.0039 12.4512C18.0039 12.6501 17.9249 12.8409 17.7842 12.9815C17.6436 13.1222 17.4528 13.2012 17.2539 13.2012H12.7539V17.7012C12.7539 17.9001 12.6749 18.0908 12.5342 18.2315C12.3936 18.3722 12.2028 18.4512 12.0039 18.4512C11.805 18.4512 11.6142 18.3722 11.4736 18.2315C11.3329 18.0908 11.2539 17.9001 11.2539 17.7012V13.2012H6.75391C6.55499 13.2012 6.36423 13.1222 6.22358 12.9815C6.08292 12.8409 6.00391 12.6501 6.00391 12.4512C6.00391 12.2523 6.08292 12.0615 6.22358 11.9208C6.36423 11.7802 6.55499 11.7012 6.75391 11.7012H11.2539V7.20117C11.2539 7.00226 11.3329 6.81149 11.4736 6.67084C11.6142 6.53019 11.805 6.45117 12.0039 6.45117Z" fill="#2C2B54"/>
</g>
<defs>
<clipPath id="clip0_7986_18493">
<rect width="24" height="24" fill="white" transform="translate(0 0.449219)"/>
</clipPath>
</defs>
</svg>
