<svg width="17" height="17" viewBox="0 0 17 17" fill="none" xmlns="http://www.w3.org/2000/svg">
<g id="telephone-fill" clip-path="url(#clip0_1902_21530)">
<path id="Vector" fill-rule="evenodd" clip-rule="evenodd" d="M2.13547 0.761147C2.31045 0.586436 2.52055 0.450905 2.75187 0.363537C2.98318 0.276169 3.23043 0.238958 3.47721 0.25437C3.72399 0.269782 3.96469 0.337465 4.18333 0.452935C4.40198 0.568404 4.59359 0.729023 4.74547 0.924147L6.54047 3.23015C6.86947 3.65315 6.98547 4.20415 6.85547 4.72415L6.30847 6.91415C6.28019 7.02758 6.28172 7.14639 6.31291 7.25906C6.3441 7.37172 6.40388 7.47441 6.48647 7.55715L8.94347 10.0141C9.02631 10.0969 9.12916 10.1568 9.24202 10.188C9.35488 10.2192 9.47389 10.2206 9.58747 10.1921L11.7765 9.64515C12.0331 9.58099 12.3009 9.576 12.5598 9.63057C12.8186 9.68514 13.0616 9.79784 13.2705 9.96015L15.5765 11.7541C16.4055 12.3991 16.4815 13.6241 15.7395 14.3651L14.7055 15.3991C13.9655 16.1391 12.8595 16.4641 11.8285 16.1011C9.18965 15.1727 6.79374 13.662 4.81847 11.6811C2.83776 9.70616 1.32708 7.31061 0.398471 4.67215C0.0364709 3.64215 0.361471 2.53515 1.10147 1.79515L2.13547 0.761147Z" fill="white"/>
</g>
<defs>
<clipPath id="clip0_1902_21530">
<rect width="16" height="16" fill="white" transform="translate(0.25 0.25)"/>
</clipPath>
</defs>
</svg>
