<svg width="31" height="30" viewBox="0 0 31 30" fill="none" xmlns="http://www.w3.org/2000/svg">
<g clip-path="url(#clip0_2038_823)">
<g clip-path="url(#clip1_2038_823)">
<path fill-rule="evenodd" clip-rule="evenodd" d="M8.93501 26.25C8.56334 26.8242 8.3125 27.1875 8.3125 27.1875C8.3125 27.1875 4.5625 21.7571 4.5625 19.6875C4.5625 17.6179 6.24292 15.9375 8.3125 15.9375C10.3821 15.9375 12.0625 17.6179 12.0625 19.6875C12.0625 20.3667 11.6588 21.4079 11.1163 22.5" fill="#FAE5DA"/>
<path fill-rule="evenodd" clip-rule="evenodd" d="M8.33876 25.5267C8.64543 25.2733 9.09334 25.2354 9.44459 25.4629C9.87917 25.7442 10.0033 26.3254 9.72209 26.7596C9.34084 27.3479 9.08376 27.7204 9.08376 27.7204C8.90876 27.9738 8.62042 28.125 8.31251 28.125C8.00459 28.125 7.71626 27.9738 7.54126 27.7204C7.54126 27.7204 5.6575 24.9904 4.52667 22.6246C3.98083 21.4825 3.625 20.405 3.625 19.6875C3.625 17.1004 5.72542 15 8.31251 15C10.8996 15 13 17.1004 13 19.6875C13 20.4642 12.5763 21.6675 11.9558 22.9171C11.7254 23.3804 11.1625 23.57 10.6992 23.3396C10.2354 23.1096 10.0463 22.5463 10.2767 22.0829C10.7413 21.1475 11.125 20.2692 11.125 19.6875C11.125 18.1354 9.86459 16.875 8.31251 16.875C6.76042 16.875 5.5 18.1354 5.5 19.6875C5.5 20.2121 5.81917 20.9808 6.21834 21.8158C6.84709 23.1313 7.72167 24.5646 8.33876 25.5267Z" fill="#D03926"/>
<path fill-rule="evenodd" clip-rule="evenodd" d="M23.3125 13.125H19.0938C18.2238 13.125 17.3889 13.4706 16.7734 14.086C16.1584 14.7011 15.8125 15.536 15.8125 16.4063C15.8125 16.4063 15.8125 16.4066 15.8125 16.407C15.8125 18.2186 17.2811 19.6875 19.0928 19.6875C19.6778 19.6875 20.3233 19.6875 20.9688 19.6875C22.7809 19.6875 24.25 21.1564 24.25 22.9688C24.25 24.7808 22.7809 26.25 20.9688 26.25H8.3125C7.795 26.25 7.375 26.67 7.375 27.1874C7.375 27.7047 7.795 28.1247 8.3125 28.1247H20.9688C23.8164 28.1247 26.125 25.8162 26.125 22.9688C26.125 20.121 23.8164 17.8125 20.9688 17.8125C20.3233 17.8125 19.6778 17.8125 19.0928 17.8125C18.3166 17.8125 17.6875 17.1832 17.6875 16.407C17.6875 16.4066 17.6875 16.4063 17.6875 16.4063C17.6875 16.0333 17.8356 15.6756 18.0995 15.4117C18.363 15.1481 18.7206 14.9997 19.0938 14.9997C20.9781 14.9997 23.3125 14.9997 23.3125 14.9997C23.83 14.9997 24.25 14.5797 24.25 14.0623C24.25 13.545 23.83 13.125 23.3125 13.125Z" fill="#D03926"/>
<path d="M8.3125 20.625C8.83027 20.625 9.25 20.2053 9.25 19.6875C9.25 19.1697 8.83027 18.75 8.3125 18.75C7.79473 18.75 7.375 19.1697 7.375 19.6875C7.375 20.2053 7.79473 20.625 8.3125 20.625Z" fill="#D03926"/>
<path fill-rule="evenodd" clip-rule="evenodd" d="M23.3125 1.875C20.7254 1.875 18.625 3.97542 18.625 6.56251C18.625 7.28001 18.9808 8.35751 19.5267 9.49959C20.6575 11.8654 22.5413 14.5954 22.5413 14.5954C22.7163 14.8488 23.0046 15 23.3125 15C23.6204 15 23.9088 14.8488 24.0838 14.5954C24.0838 14.5954 25.9675 11.8654 27.0983 9.49959C27.6442 8.35751 28 7.28001 28 6.56251C28 3.97542 25.8996 1.875 23.3125 1.875ZM23.3125 12.3608C23.9283 11.3988 24.7871 9.98751 25.4067 8.69084C25.8058 7.85584 26.125 7.08709 26.125 6.56251C26.125 5.01042 24.8646 3.75 23.3125 3.75C21.7604 3.75 20.5 5.01042 20.5 6.56251C20.5 7.08709 20.8192 7.85584 21.2183 8.69084C21.8379 9.98751 22.6967 11.3988 23.3125 12.3608Z" fill="#D03926"/>
<path d="M23.3125 7.5C23.8303 7.5 24.25 7.08027 24.25 6.5625C24.25 6.04473 23.8303 5.625 23.3125 5.625C22.7947 5.625 22.375 6.04473 22.375 6.5625C22.375 7.08027 22.7947 7.5 23.3125 7.5Z" fill="#D03926"/>
</g>
</g>
<defs>
<clipPath id="clip0_2038_823">
<rect width="30" height="30" fill="white" transform="translate(0.8125)"/>
</clipPath>
<clipPath id="clip1_2038_823">
<rect width="30" height="30" fill="white" transform="translate(0.8125)"/>
</clipPath>
</defs>
</svg>
