<svg width="34" height="35" viewBox="0 0 34 35" fill="none" xmlns="http://www.w3.org/2000/svg">
<path d="M21.2446 13.2094C21.3852 13.3501 21.4643 13.5409 21.4643 13.7398C21.4643 13.9387 21.3852 14.1294 21.2446 14.2701L18.0626 17.4521L21.2446 20.6341C21.3852 20.7747 21.4643 20.9655 21.4643 21.1644C21.4643 21.3633 21.3852 21.5541 21.2446 21.6947C21.1039 21.8354 20.9132 21.9144 20.7143 21.9144C20.5154 21.9144 20.3246 21.8354 20.1839 21.6947L17.002 18.5127L13.82 21.6947C13.6793 21.8354 13.4886 21.9144 13.2896 21.9144C13.0907 21.9144 12.9 21.8354 12.7593 21.6947C12.6187 21.5541 12.5396 21.3633 12.5396 21.1644C12.5396 20.9655 12.6187 20.7747 12.7593 20.6341L15.9413 17.4521L12.7593 14.2701C12.6187 14.1294 12.5396 13.9387 12.5396 13.7398C12.5396 13.5409 12.6187 13.3501 12.7593 13.2094C12.9 13.0688 13.0907 12.9898 13.2896 12.9898C13.4886 12.9898 13.6793 13.0688 13.82 13.2094L17.002 16.3914L20.1839 13.2094C20.3246 13.0688 20.5154 12.9898 20.7143 12.9898C20.9132 12.9898 21.1039 13.0688 21.2446 13.2094Z" fill="#2C2B54"/>
</svg>
